<svg width="30" height="31" viewBox="0 0 30 31" fill="none" xmlns="http://www.w3.org/2000/svg">
<path d="M20.1318 21.8545C20.1318 22.349 20.3283 22.8232 20.6779 23.1728C21.0275 23.5224 21.5017 23.7188 21.9961 23.7188C22.4906 23.7188 22.9648 23.5224 23.3144 23.1728C23.664 22.8232 23.8604 22.349 23.8604 21.8545C23.8604 21.3601 23.664 20.8859 23.3144 20.5363C22.9648 20.1867 22.4906 19.9902 21.9961 19.9902C21.5017 19.9902 21.0275 20.1867 20.6779 20.5363C20.3283 20.8859 20.1318 21.3601 20.1318 21.8545Z" fill="#1F4854"/>
<path d="M27.9145 22.2416C27.8178 22.1356 27.7641 21.9973 27.7641 21.8538C27.7641 21.7103 27.8178 21.5719 27.9145 21.4659L29.1657 20.2147C29.4917 19.8673 29.697 19.424 29.7511 18.9507C29.8052 18.4773 29.7052 17.9992 29.466 17.5872C29.2338 17.1756 28.8733 16.8512 28.4395 16.6637C28.0058 16.4762 27.5225 16.4358 27.0637 16.5487L25.312 16.9616C25.1731 16.9899 25.0286 16.966 24.9062 16.8945C24.7838 16.8229 24.6922 16.7087 24.6488 16.5737L24.1233 14.847C23.9907 14.3922 23.7141 13.9927 23.3351 13.7084C22.956 13.4242 22.4951 13.2705 22.0213 13.2705C21.5475 13.2705 21.0865 13.4242 20.7075 13.7084C20.3285 13.9927 20.0519 14.3922 19.9193 14.847L19.3938 16.5737C19.3504 16.7087 19.2588 16.8229 19.1364 16.8945C19.014 16.966 18.8695 16.9899 18.7306 16.9616L16.9789 16.5487C16.5218 16.4366 16.0406 16.4776 15.609 16.6651C15.1774 16.8527 14.8191 17.1766 14.5891 17.5872C14.3443 17.9967 14.2399 18.475 14.2918 18.9493C14.3438 19.4235 14.5492 19.8679 14.8769 20.2147L16.1281 21.4659C16.2248 21.5719 16.2785 21.7103 16.2785 21.8538C16.2785 21.9973 16.2248 22.1356 16.1281 22.2416L14.8769 23.5554C14.5492 23.9022 14.3438 24.3466 14.2918 24.8209C14.2399 25.2951 14.3443 25.7734 14.5891 26.1829C14.8191 26.5935 15.1774 26.9174 15.609 27.105C16.0406 27.2925 16.5218 27.3335 16.9789 27.2214L18.7306 26.8085C18.8695 26.7802 19.014 26.8041 19.1364 26.8756C19.2588 26.9472 19.3504 27.0614 19.3938 27.1964L19.8817 28.9231C20.0144 29.3779 20.291 29.7774 20.67 30.0617C21.049 30.3459 21.51 30.4996 21.9838 30.4996C22.4575 30.4996 22.9185 30.3459 23.2975 30.0617C23.6765 29.7774 23.9531 29.3779 24.0858 28.9231L24.6113 27.1964C24.6547 27.0614 24.7463 26.9472 24.8687 26.8756C24.991 26.8041 25.1355 26.7802 25.2744 26.8085L27.0261 27.2214C27.485 27.3343 27.9682 27.2939 28.402 27.1064C28.8358 26.9189 29.1963 26.5945 29.4284 26.1829C29.6677 25.7709 29.7676 25.2928 29.7135 24.8194C29.6595 24.3461 29.4542 23.9028 29.1281 23.5554L27.9145 22.2416ZM21.9963 25.5698C21.2539 25.5698 20.5282 25.3497 19.9109 24.9373C19.2936 24.5248 18.8125 23.9386 18.5284 23.2527C18.2443 22.5668 18.1699 21.8121 18.3148 21.0839C18.4596 20.3558 18.8171 19.687 19.3421 19.162C19.867 18.6371 20.5358 18.2796 21.264 18.1347C21.9921 17.9899 22.7468 18.0642 23.4327 18.3483C24.1186 18.6325 24.7048 19.1136 25.1173 19.7308C25.5297 20.3481 25.7499 21.0738 25.7499 21.8162C25.7499 22.8118 25.3544 23.7665 24.6505 24.4704C23.9465 25.1744 22.9918 25.5698 21.9963 25.5698Z" fill="#1F4854"/>
<path d="M18.1174 29.4615C18.0684 29.3121 17.966 29.1861 17.8297 29.1075C17.6935 29.029 17.5331 29.0036 17.3792 29.0361C17.072 29.1105 16.757 29.1483 16.4408 29.1487C15.8716 29.1509 15.3087 29.0302 14.7904 28.7948C14.2721 28.5595 13.8108 28.215 13.4379 27.7849C13.3388 27.678 13.2066 27.6075 13.0626 27.5847C11.7525 27.3712 10.4851 26.9488 9.30896 26.3335V24.757C9.30955 24.3034 9.40957 23.8555 9.60196 23.4448C9.79436 23.034 10.0745 22.6705 10.4225 22.3797C11.2977 21.6419 11.9249 20.6528 12.2189 19.5465C12.513 18.4402 12.4597 17.2703 12.0663 16.1953C11.6729 15.1204 10.9585 14.1924 10.0198 13.5372C9.08117 12.882 7.96375 12.5313 6.81906 12.5327H2.81521C3.26541 10.5681 4.18916 8.74333 5.50599 7.21742C6.82281 5.69151 8.49278 4.51073 10.3704 3.77794C12.248 3.04515 14.2763 2.78258 16.2787 3.0131C18.281 3.24363 20.1966 3.96025 21.8585 5.10055H17.667C17.2019 5.07236 16.7359 5.13963 16.2978 5.29823C15.8596 5.45683 15.4586 5.7034 15.1192 6.02277C14.7799 6.34214 14.5095 6.72756 14.3247 7.15531C14.1399 7.58307 14.0446 8.04411 14.0446 8.51008C14.0446 8.97605 14.1399 9.4371 14.3247 9.86485C14.5095 10.2926 14.7799 10.678 15.1192 10.9974C15.4586 11.3168 15.8596 11.5633 16.2978 11.7219C16.7359 11.8805 17.2019 11.9478 17.667 11.9196C18.2506 11.9247 18.8217 12.0891 19.3186 12.3951C20.0506 11.729 21.0065 11.3628 21.9962 11.3691C22.8673 11.3632 23.7168 11.6407 24.4164 12.1598C25.1161 12.6789 25.628 13.4114 25.8749 14.2469C25.9214 14.3953 26.0214 14.5211 26.1556 14.5997C26.2898 14.6784 26.4484 14.7042 26.6006 14.6723C26.9079 14.5978 27.2229 14.56 27.539 14.5597C27.9869 14.5557 28.4318 14.632 28.8528 14.7849C28.9506 14.8182 29.0552 14.8268 29.1572 14.8099C29.2592 14.7929 29.3554 14.751 29.4372 14.6878C29.519 14.6246 29.5839 14.5421 29.626 14.4476C29.6681 14.3532 29.6862 14.2499 29.6786 14.1468C29.3647 10.3275 27.5879 6.77709 24.7191 4.23645C21.8502 1.69581 18.111 0.361291 14.2819 0.511423C10.4527 0.661554 6.82946 2.28473 4.16836 5.04219C1.50725 7.79964 0.0139066 11.4783 0 15.3104C0 21.4037 5.00482 30.1747 14.8643 30.1747C15.8733 30.1723 16.8794 30.0675 17.8672 29.8619C17.9091 29.852 17.9485 29.8335 17.983 29.8077C18.0174 29.7819 18.0462 29.7492 18.0674 29.7117C18.0922 29.6756 18.1094 29.6347 18.118 29.5917C18.1266 29.5487 18.1264 29.5044 18.1174 29.4615Z" fill="#1F4854"/>
</svg>
