<svg width="23" height="31" viewBox="0 0 23 31" fill="none" xmlns="http://www.w3.org/2000/svg">
<path d="M7.59705 10.4948H15.4025C15.7475 10.4948 16.0784 10.363 16.3224 10.1286C16.5663 9.89408 16.7034 9.57605 16.7034 9.24445C16.7034 8.91285 16.5663 8.59483 16.3224 8.36035C16.0784 8.12587 15.7475 7.99414 15.4025 7.99414H7.59705C7.25203 7.99414 6.92114 8.12587 6.67717 8.36035C6.4332 8.59483 6.29614 8.91285 6.29614 9.24445C6.29614 9.57605 6.4332 9.89408 6.67717 10.1286C6.92114 10.363 7.25203 10.4948 7.59705 10.4948Z" fill="#1F4854"/>
<path d="M8.20904 6.11895C8.22821 6.27143 8.30512 6.41179 8.42509 6.51326C8.54505 6.61472 8.69969 6.67019 8.85949 6.66908H14.1021C14.2612 6.66753 14.4143 6.61113 14.5337 6.51016C14.6531 6.40918 14.7308 6.27035 14.7526 6.11895C15.0379 4.78969 15.5664 3.51966 16.3137 2.36801C16.3826 2.25626 16.411 2.1257 16.3946 1.99675C16.3781 1.86781 16.3176 1.74775 16.2226 1.65534C16.1442 1.55601 16.0366 1.4815 15.9137 1.44139C15.7908 1.40129 15.6583 1.39742 15.5331 1.43028L13.1135 2.43053C13.0729 2.44936 13.0284 2.45913 12.9834 2.45913C12.9383 2.45913 12.8938 2.44936 12.8533 2.43053C12.7726 2.40166 12.7071 2.34321 12.6711 2.26799L12.0987 0.880145C12.0488 0.767374 11.9654 0.671214 11.859 0.603625C11.7526 0.536036 11.6279 0.5 11.5003 0.5C11.3728 0.5 11.2481 0.536036 11.1417 0.603625C11.0353 0.671214 10.9519 0.767374 10.9019 0.880145L10.3295 2.26799C10.2936 2.34321 10.2281 2.40166 10.1474 2.43053C10.1068 2.44936 10.0623 2.45913 10.0173 2.45913C9.97224 2.45913 9.92778 2.44936 9.88721 2.43053L7.46752 1.43028C7.34345 1.38205 7.20691 1.37177 7.07653 1.40086C6.94616 1.42995 6.82829 1.49698 6.73902 1.59282C6.64401 1.68523 6.58354 1.80529 6.56706 1.93424C6.55058 2.06318 6.57903 2.19374 6.64795 2.3055C7.40237 3.47623 7.93118 4.76801 8.20904 6.11895Z" fill="#1F4854"/>
<path d="M15.9751 11.8952C15.8409 11.7961 15.676 11.7433 15.5068 11.7452H7.49321C7.32402 11.7433 7.15908 11.7961 7.02489 11.8952C3.70758 14.3958 0 18.6469 0 22.3978C0 27.6866 3.07014 30.4998 11.5 30.4998C19.9299 30.4998 23 27.6866 23 22.3978C23 18.6469 19.3054 14.3333 15.9751 11.8952ZM12.8009 25.6611C12.7251 25.6754 12.6566 25.7142 12.6069 25.7711C12.5572 25.8279 12.5292 25.8994 12.5277 25.9737V26.4363C12.5277 26.685 12.4249 26.9235 12.2419 27.0994C12.059 27.2752 11.8108 27.374 11.552 27.374C11.2933 27.374 11.0451 27.2752 10.8621 27.0994C10.6792 26.9235 10.5764 26.685 10.5764 26.4363V26.0362C10.5764 25.9533 10.5421 25.8738 10.4811 25.8152C10.4201 25.7566 10.3374 25.7236 10.2511 25.7236H9.4836C9.22483 25.7236 8.97666 25.6248 8.79369 25.449C8.61071 25.2731 8.50792 25.0346 8.50792 24.7859C8.50792 24.5372 8.61071 24.2987 8.79369 24.1228C8.97666 23.947 9.22483 23.8482 9.4836 23.8482H12.2805C12.4882 23.855 12.6915 23.7904 12.854 23.6659C13.0164 23.5414 13.1272 23.3652 13.1665 23.1692C13.2057 22.9731 13.1708 22.77 13.068 22.5964C12.9652 22.4229 12.8013 22.2904 12.6058 22.2228L9.7698 21.135C9.19821 20.9292 8.71188 20.5502 8.38434 20.0552C8.0568 19.5602 7.90587 18.9761 7.95437 18.3913C8.00287 17.8066 8.24816 17.2529 8.65315 16.814C9.05814 16.3751 9.60081 16.0749 10.1991 15.9587C10.2749 15.9444 10.3434 15.9056 10.3931 15.8488C10.4428 15.7919 10.4708 15.7204 10.4723 15.6461V15.1835C10.4723 14.9348 10.5751 14.6963 10.7581 14.5204C10.941 14.3446 11.1892 14.2458 11.448 14.2458C11.7067 14.2458 11.9549 14.3446 12.1379 14.5204C12.3208 14.6963 12.4236 14.9348 12.4236 15.1835V15.5836C12.4236 15.6665 12.4579 15.746 12.5189 15.8046C12.5799 15.8633 12.6626 15.8962 12.7489 15.8962H13.5164C13.7752 15.8962 14.0233 15.995 14.2063 16.1709C14.3893 16.3467 14.4921 16.5852 14.4921 16.8339C14.4921 17.0826 14.3893 17.3211 14.2063 17.497C14.0233 17.6729 13.7752 17.7717 13.5164 17.7717H10.7715C10.5639 17.7648 10.3605 17.8294 10.1981 17.9539C10.0356 18.0784 9.9248 18.2546 9.88556 18.4507C9.84633 18.6468 9.88126 18.8499 9.98407 19.0234C10.0869 19.1969 10.2508 19.3294 10.4463 19.3971L13.2822 20.4848C13.8536 20.6948 14.3382 21.0782 14.6622 21.5769C14.9863 22.0756 15.1321 22.6623 15.0777 23.2479C15.0232 23.8335 14.7714 24.386 14.3605 24.8216C13.9496 25.2571 13.402 25.5519 12.8009 25.6611Z" fill="#1F4854"/>
</svg>
