<svg width="30" height="31" viewBox="0 0 30 31" fill="none" xmlns="http://www.w3.org/2000/svg">
<path fill-rule="evenodd" clip-rule="evenodd" d="M18.4322 0.5C17.2241 0.5 16.2448 1.47936 16.2448 2.68746V8.31236C16.2448 9.52045 17.2241 10.4998 18.4322 10.4998H27.807C29.0151 10.4998 29.9945 9.52045 29.9945 8.31236V2.68746C29.9945 1.47936 29.0151 0.5 27.807 0.5H18.4322ZM18.4322 13.0001C17.2241 13.0001 16.2448 13.9794 16.2448 15.1875V28.3125C16.2448 29.5206 17.2241 30.5 18.4322 30.5H27.807C29.0151 30.5 29.9945 29.5206 29.9945 28.3125V15.1875C29.9945 13.9794 29.0151 13.0001 27.807 13.0001H18.4322ZM0 2.68776C0 1.47966 0.979359 0.500305 2.18746 0.500305H11.5623C12.7704 0.500305 13.7498 1.47966 13.7498 2.68776V15.8128C13.7498 17.0209 12.7704 18.0002 11.5623 18.0002H2.18746C0.979359 18.0002 0 17.0209 0 15.8128V2.68776ZM2.18746 20.4997C0.979359 20.4997 0 21.479 0 22.6871V28.312C0 29.5201 0.979359 30.4995 2.18746 30.4995H11.5623C12.7704 30.4995 13.7498 29.5201 13.7498 28.312V22.6871C13.7498 21.479 12.7704 20.4997 11.5623 20.4997H2.18746Z" fill="#1F4854"/>
</svg>
