<svg width="30" height="31" viewBox="0 0 30 31" fill="none" xmlns="http://www.w3.org/2000/svg">
<g clip-path="url(#clip0_630_231)">
<path d="M29.1624 16.3129V17.5629C29.1683 17.8553 29.0715 18.1406 28.8888 18.369C28.706 18.5974 28.449 18.7545 28.1624 18.8129L26.6124 19.1254C26.317 20.3693 25.8187 21.556 25.1374 22.6379L26.0249 23.9629C26.1758 24.1989 26.2431 24.4788 26.2159 24.7576C26.1887 25.0364 26.0686 25.298 25.8749 25.5004L24.1624 27.2129C23.9575 27.4157 23.6887 27.5414 23.4017 27.5688C23.1146 27.5961 22.827 27.5234 22.5874 27.3629L21.2499 26.4629C20.176 27.1648 18.9934 27.6843 17.7499 28.0004L17.4999 29.4879C17.4415 29.7745 17.2844 30.0315 17.056 30.2142C16.8276 30.3969 16.5423 30.4938 16.2499 30.4879H13.7499C13.4575 30.4938 13.1722 30.3969 12.9438 30.2142C12.7154 30.0315 12.5584 29.7745 12.4999 29.4879L12.2499 28.0004C11.0065 27.6843 9.82385 27.1648 8.74991 26.4629L7.42491 27.3504C7.18537 27.5109 6.8977 27.5836 6.61066 27.5563C6.32362 27.5289 6.05486 27.4032 5.84991 27.2004L4.12491 25.5004C3.92209 25.2954 3.79636 25.0267 3.76903 24.7396C3.74169 24.4526 3.81443 24.1649 3.97491 23.9254L4.86241 22.6004C4.18114 21.5185 3.6828 20.3318 3.38741 19.0879L1.83741 18.7754C1.55082 18.717 1.29379 18.5599 1.11107 18.3315C0.928354 18.1031 0.831515 17.8178 0.837413 17.5254V16.2754H9.03741C9.03741 17.8567 9.6656 19.3733 10.7838 20.4915C11.902 21.6097 13.4186 22.2379 14.9999 22.2379C16.5813 22.2379 18.0979 21.6097 19.216 20.4915C20.3342 19.3733 20.9624 17.8567 20.9624 16.2754L29.1624 16.3129Z" fill="#1F4854"/>
<path d="M21.4624 5.2623C21.4624 6.03143 21.7679 6.76906 22.3118 7.31291C22.8556 7.85677 23.5933 8.1623 24.3624 8.1623C25.1315 8.1623 25.8692 7.85677 26.413 7.31291C26.9569 6.76906 27.2624 6.03143 27.2624 5.2623C27.2624 4.49318 26.9569 3.75555 26.413 3.2117C25.8692 2.66784 25.1315 2.3623 24.3624 2.3623C23.5933 2.3623 22.8556 2.66784 22.3118 3.2117C21.7679 3.75555 21.4624 4.49318 21.4624 5.2623Z" fill="#1F4854"/>
<path d="M2.75 5.2623C2.75 6.03143 3.05553 6.76906 3.59939 7.31291C4.14325 7.85677 4.88087 8.1623 5.65 8.1623C6.41913 8.1623 7.15675 7.85677 7.70061 7.31291C8.24446 6.76906 8.55 6.03143 8.55 5.2623C8.55 4.49318 8.24446 3.75555 7.70061 3.2117C7.15675 2.66784 6.41913 2.3623 5.65 2.3623C4.88087 2.3623 4.14325 2.66784 3.59939 3.2117C3.05553 3.75555 2.75 4.49318 2.75 5.2623Z" fill="#1F4854"/>
<path d="M8.5 11.5C8.05149 11.2148 7.56842 10.988 7.0625 10.8251C5.72236 10.4484 4.2941 10.5376 3.01122 11.078C1.72834 11.6184 0.666748 12.5781 0 13.8001H7.1625C7.53294 12.992 7.98087 12.2217 8.5 11.5Z" fill="#1F4854"/>
<path d="M22.7249 13.8375H29.9999C29.3365 12.6084 28.2746 11.6416 26.9887 11.0964C25.7028 10.5511 24.2696 10.4598 22.9249 10.8375C22.4097 11.0024 21.9181 11.2335 21.4624 11.525C21.9529 12.2557 22.3755 13.0298 22.7249 13.8375Z" fill="#1F4854"/>
<path d="M21.3376 13.8375C20.8385 12.5415 19.9741 11.4183 18.8491 10.604C17.7242 9.78966 16.3871 9.31932 15.0001 9.25C13.6016 9.3116 12.2515 9.77953 11.1148 10.5965C9.9781 11.4135 9.10423 12.5441 8.6001 13.85L21.3376 13.8375Z" fill="#1F4854"/>
<path d="M11.2375 4.1375C11.2375 5.10223 11.6208 6.02744 12.3029 6.7096C12.9851 7.39176 13.9103 7.775 14.875 7.775C15.8398 7.775 16.765 7.39176 17.4472 6.7096C18.1293 6.02744 18.5125 5.10223 18.5125 4.1375C18.5125 3.17278 18.1293 2.24756 17.4472 1.5654C16.765 0.883235 15.8398 0.5 14.875 0.5C13.9103 0.5 12.9851 0.883235 12.3029 1.5654C11.6208 2.24756 11.2375 3.17278 11.2375 4.1375Z" fill="#1F4854"/>
</g>
<defs>
<clipPath id="clip0_630_231">
<rect width="30" height="30" fill="white" transform="translate(0 0.5)"/>
</clipPath>
</defs>
</svg>
