<svg width="29" height="24" viewBox="0 0 29 24" fill="none" xmlns="http://www.w3.org/2000/svg">
<path d="M29 8.75098C29 8.27027 28.809 7.80925 28.4691 7.46935C28.1292 7.12944 27.6682 6.93848 27.1875 6.93848H19.2488C19.1691 6.94279 19.0929 6.97242 19.0312 7.02306L11.3704 14.6839C11.0407 15.0181 10.6209 15.249 10.1621 15.3485C9.01587 15.6524 7.84862 15.8705 6.67 16.001C6.30879 16.0079 5.95061 15.9338 5.62183 15.7841C5.29305 15.6343 5.00202 15.4127 4.77017 15.1357C4.53831 14.8586 4.37153 14.5331 4.28208 14.1831C4.19264 13.833 4.18282 13.4674 4.25333 13.1131L4.8575 10.0922C4.95697 9.63345 5.1879 9.21357 5.52208 8.88389L6.94792 7.45806C6.98634 7.41383 7.01163 7.35974 7.02093 7.3019C7.03023 7.24405 7.02317 7.18476 7.00054 7.13071C6.97792 7.07667 6.94064 7.03003 6.8929 6.99606C6.84517 6.96209 6.78889 6.94215 6.73042 6.93848H1.8125C1.3318 6.93848 0.870779 7.12944 0.530869 7.46935C0.190959 7.80925 0 8.27027 0 8.75098L0 22.0426C0 22.5233 0.190959 22.9844 0.530869 23.3243C0.870779 23.6642 1.3318 23.8551 1.8125 23.8551H27.1875C27.6682 23.8551 28.1292 23.6642 28.4691 23.3243C28.809 22.9844 29 22.5233 29 22.0426V8.75098ZM15.1042 18.1156H24.7708C25.0112 18.1156 25.2417 18.211 25.4116 18.381C25.5816 18.5509 25.6771 18.7815 25.6771 19.0218C25.6771 19.2622 25.5816 19.4927 25.4116 19.6626C25.2417 19.8326 25.0112 19.9281 24.7708 19.9281H15.1042C14.8638 19.9281 14.6333 19.8326 14.4634 19.6626C14.2934 19.4927 14.1979 19.2622 14.1979 19.0218C14.1979 18.7815 14.2934 18.5509 14.4634 18.381C14.6333 18.211 14.8638 18.1156 15.1042 18.1156Z" fill="#1F4854"/>
<path d="M6.82677 10.1392C6.7432 10.222 6.68459 10.3267 6.6576 10.4413L6.04135 13.4621C6.02157 13.5596 6.0267 13.6606 6.05627 13.7556C6.08584 13.8507 6.13889 13.9367 6.21052 14.0059C6.27895 14.0784 6.36495 14.1321 6.4602 14.1618C6.55545 14.1914 6.65674 14.196 6.75427 14.175L9.7751 13.5709C9.89067 13.5465 9.99606 13.4875 10.0772 13.4017L19.4538 4.0371C19.8659 3.60032 20.0915 3.02017 20.0827 2.41978C20.0739 1.8194 19.8316 1.24606 19.407 0.821481C18.9824 0.396901 18.4091 0.154506 17.8087 0.145753C17.2083 0.137001 16.6281 0.362579 16.1913 0.774603L6.82677 10.1392Z" fill="#1F4854"/>
</svg>
