<svg width="30" height="31" viewBox="0 0 30 31" fill="none" xmlns="http://www.w3.org/2000/svg">
<mask id="mask0_630_242" style="mask-type:luminance" maskUnits="userSpaceOnUse" x="-1" y="-1" width="32" height="33">
<path d="M27.5 0.5H2.5C1.83696 0.5 1.20107 0.763392 0.732233 1.23223C0.263392 1.70107 0 2.33696 0 3V28C0 28.663 0.263392 29.2989 0.732233 29.7678C1.20107 30.2366 1.83696 30.5 2.5 30.5H27.5C28.163 30.5 28.7989 30.2366 29.2678 29.7678C29.7366 29.2989 30 28.663 30 28V3C30 2.33696 29.7366 1.70107 29.2678 1.23223C28.7989 0.763392 28.163 0.5 27.5 0.5Z" fill="white" stroke="white" stroke-width="2" stroke-linecap="round" stroke-linejoin="round"/>
<path d="M12.4998 21.3333L16.6665 24.6667L23.3332 16.3333M6.6665 8H23.3332M6.6665 14.6667H13.3332" stroke="black" stroke-width="2" stroke-linecap="round" stroke-linejoin="round"/>
</mask>
<g mask="url(#mask0_630_242)">
<path d="M27.9243 4.18316C27.807 4.04609 27.6615 3.93604 27.4976 3.86059C27.3338 3.78514 27.1556 3.74608 26.9752 3.74609H15.7364C15.5591 3.74632 15.3839 3.7843 15.2224 3.8575C15.0609 3.93071 14.9169 4.03747 14.7998 4.17067C14.6825 4.30429 14.5951 4.46142 14.5434 4.63155C14.4917 4.80169 14.477 4.98089 14.5001 5.15719L15.7489 14.5229C15.7702 14.6868 15.8236 14.845 15.9061 14.9884C15.9885 15.1317 16.0984 15.2574 16.2294 15.3583C16.3605 15.4592 16.5101 15.5333 16.6698 15.5763C16.8294 15.6194 16.996 15.6306 17.16 15.6093C17.324 15.588 17.4822 15.5345 17.6255 15.4521C17.7689 15.3696 17.8946 15.2598 17.9954 15.1287C18.0963 14.9977 18.1704 14.8481 18.2135 14.6884C18.2565 14.5288 18.2677 14.3622 18.2464 14.1982L17.2349 6.59326C17.2279 6.5506 17.231 6.50689 17.244 6.46566C17.257 6.42443 17.2796 6.38686 17.3098 6.35599C17.3361 6.32417 17.3683 6.29786 17.4047 6.27857C17.4412 6.25928 17.4811 6.24739 17.5221 6.24361H25.1021C25.1479 6.24105 25.1936 6.24999 25.235 6.26962C25.2764 6.28925 25.3123 6.31895 25.3393 6.35599C25.3698 6.38929 25.3924 6.42905 25.4054 6.47229C25.4184 6.51554 25.4214 6.56116 25.4143 6.60575L24.0531 14.8101C23.9985 15.1413 24.0776 15.4806 24.2732 15.7534C24.4687 16.0263 24.7646 16.2102 25.0958 16.2649C25.2598 16.2919 25.4275 16.2864 25.5894 16.2487C25.7513 16.2109 25.9041 16.1416 26.0392 16.0448C26.312 15.8493 26.496 15.5534 26.5506 15.2222L28.224 5.23211C28.2566 5.04599 28.2466 4.85488 28.1947 4.67318C28.1428 4.49148 28.0503 4.32393 27.9243 4.18316Z" fill="#1F4854"/>
<path d="M23.8531 17.4832H16.3606C16.3025 17.4853 16.2451 17.4697 16.1961 17.4385C16.147 17.4072 16.1086 17.3619 16.0859 17.3084L14.8871 14.9857C14.8417 14.8912 14.7734 14.8097 14.6883 14.7486C14.6032 14.6875 14.504 14.6488 14.4 14.636C14.2951 14.6239 14.1888 14.6381 14.0907 14.6774C13.9926 14.7166 13.9058 14.7797 13.8381 14.8608L11.4904 17.7454C11.298 17.9511 11.0347 18.0761 10.7537 18.0951H9.50492C9.42082 18.0934 9.33724 18.1087 9.2592 18.1401C9.18117 18.1715 9.11028 18.2183 9.0508 18.2778C8.99132 18.3373 8.94447 18.4082 8.91307 18.4862C8.88166 18.5643 8.86635 18.6478 8.86805 18.7319V26.2245C8.86601 26.3218 8.88769 26.4181 8.9312 26.5051C8.97471 26.5921 9.03876 26.6672 9.1178 26.724C11.9899 28.8843 14.2127 29.9707 15.7362 29.9707H22.6668C23.2105 30.0627 23.7687 29.9395 24.2232 29.6272C24.6777 29.3149 24.9928 28.838 25.1019 28.2974C25.7108 25.3471 26.1279 22.3605 26.3506 19.3563C26.3506 18.4197 25.489 17.4832 23.8531 17.4832Z" fill="#1F4854"/>
<path d="M6.15836 16.8586H2.31219C2.22939 16.8586 2.14998 16.8915 2.09144 16.9501C2.03289 17.0086 2 17.088 2 17.1708V28.4096C2 28.4924 2.03289 28.5718 2.09144 28.6304C2.14998 28.6889 2.22939 28.7218 2.31219 28.7218H6.15836C6.26279 28.7341 6.36864 28.7242 6.46902 28.6929C6.5694 28.6616 6.66206 28.6095 6.74097 28.54C6.81989 28.4705 6.8833 28.3852 6.92706 28.2896C6.97084 28.194 6.99399 28.0902 6.99502 27.9851V17.5954C6.99399 17.4903 6.97084 17.3865 6.92706 17.2909C6.8833 17.1953 6.81989 17.11 6.74097 17.0405C6.66206 16.971 6.5694 16.9189 6.46902 16.8875C6.36864 16.8562 6.26279 16.8464 6.15836 16.8586Z" fill="#1F4854"/>
<path d="M19.4827 11.2384C19.4827 11.7352 19.68 12.2116 20.0313 12.5629C20.3826 12.9142 20.859 13.1115 21.3558 13.1115C21.8526 13.1115 22.329 12.9142 22.6803 12.5629C23.0316 12.2116 23.2289 11.7352 23.2289 11.2384C23.2289 10.7416 23.0316 10.2651 22.6803 9.91386C22.329 9.56258 21.8526 9.36523 21.3558 9.36523C20.859 9.36523 20.3826 9.56258 20.0313 9.91386C19.68 10.2651 19.4827 10.7416 19.4827 11.2384Z" fill="#1F4854"/>
<path d="M12.6143 13.7364C12.7966 13.7388 12.9771 13.7012 13.1433 13.6263C13.3095 13.5515 13.4572 13.4412 13.5762 13.3031C13.6952 13.1651 13.7826 13.0027 13.8321 12.8273C13.8817 12.6519 13.8922 12.4678 13.8631 12.2879L12.2771 2.85976C12.2464 2.77934 12.2464 2.69042 12.2771 2.61C12.3152 2.5592 12.3679 2.52123 12.4282 2.50115C12.4884 2.48107 12.5534 2.47984 12.6143 2.49762H22.6044C22.9356 2.49762 23.2532 2.36605 23.4874 2.13186C23.7216 1.89768 23.8531 1.58005 23.8531 1.24886C23.8531 0.917669 23.7216 0.600043 23.4874 0.365856C23.2532 0.131669 22.9356 0.000103862 22.6044 0.000103862H10.7412C10.5589 -0.00224661 10.3784 0.0353235 10.2122 0.110176C10.046 0.185029 9.89826 0.29535 9.77925 0.433394C9.66025 0.571437 9.57291 0.733857 9.52336 0.909249C9.4738 1.08464 9.46325 1.26875 9.49242 1.44866L11.3656 12.6875C11.4134 12.983 11.5658 13.2514 11.7951 13.4439C12.0243 13.6365 12.315 13.7403 12.6143 13.7364Z" fill="#1F4854"/>
</g>
</svg>
