<svg width="40" height="41" viewBox="0 0 40 41" fill="none" xmlns="http://www.w3.org/2000/svg">
<path d="M14.4453 11.9541C15.9568 13.5193 17.909 14.5873 20.0422 15.016C22.1755 15.4447 24.3887 15.2139 26.3875 14.3541" stroke="#1F4854" stroke-width="2.5" stroke-linecap="round" stroke-linejoin="round"/>
<path d="M13.5547 15.2266C13.5547 16.936 14.2337 18.5753 15.4425 19.7841C16.6512 20.9928 18.2906 21.6719 20 21.6719C21.7094 21.6719 23.3487 20.9928 24.5575 19.7841C25.7662 18.5753 26.4453 16.936 26.4453 15.2266C26.4453 13.5172 25.7662 11.8778 24.5575 10.669C23.3487 9.46031 21.7094 8.78125 20 8.78125C18.2906 8.78125 16.6512 9.46031 15.4425 10.669C14.2337 11.8778 13.5547 13.5172 13.5547 15.2266Z" stroke="#1F4854" stroke-width="2.5" stroke-linecap="round" stroke-linejoin="round"/>
<path d="M2.42188 12.2984V5.26562C2.42188 4.64403 2.6688 4.04787 3.10834 3.60834C3.54787 3.1688 4.14403 2.92188 4.76562 2.92188H11.7969" stroke="#1F4854" stroke-width="2.5" stroke-linecap="round" stroke-linejoin="round"/>
<path d="M37.5781 12.2984V5.26562C37.5781 4.64403 37.3312 4.04787 36.8917 3.60834C36.4522 3.1688 35.8559 2.92188 35.2344 2.92188H28.2031" stroke="#1F4854" stroke-width="2.5" stroke-linecap="round" stroke-linejoin="round"/>
<path d="M2.42188 28.7031V35.7344C2.42188 36.3559 2.6688 36.9522 3.10834 37.3917C3.54787 37.8312 4.14403 38.0781 4.76562 38.0781H11.7969" stroke="#1F4854" stroke-width="2.5" stroke-linecap="round" stroke-linejoin="round"/>
<path d="M37.5781 28.7031V35.7344C37.5781 36.3559 37.3312 36.9522 36.8917 37.3917C36.4522 37.8312 35.8559 38.0781 35.2344 38.0781H28.2031" stroke="#1F4854" stroke-width="2.5" stroke-linecap="round" stroke-linejoin="round"/>
<path d="M29.9015 31.0467C29.1845 28.9923 27.846 27.212 26.072 25.9522C24.2979 24.6923 22.1759 24.0156 19.9999 24.0156C17.8241 24.0156 15.702 24.6923 13.928 25.9522C12.1538 27.212 10.8155 28.9923 10.0984 31.0467" stroke="#1F4854" stroke-width="2.5" stroke-linecap="round" stroke-linejoin="round"/>
</svg>
