<svg width="30" height="28" viewBox="0 0 30 28" fill="none" xmlns="http://www.w3.org/2000/svg">
<path d="M4.375 27.4375H25.625C26.7853 27.4375 27.8981 26.9766 28.7186 26.1561C29.5391 25.3356 30 24.2228 30 23.0625V10.5625C30 9.40218 29.5391 8.28938 28.7186 7.46891C27.8981 6.64844 26.7853 6.1875 25.625 6.1875H20.9375C20.8546 6.1875 20.7751 6.15458 20.7165 6.09597C20.6579 6.03737 20.625 5.95788 20.625 5.875V4.3125C20.625 3.31794 20.2299 2.36411 19.5267 1.66085C18.8234 0.957588 17.8696 0.5625 16.875 0.5625H13.125C12.1304 0.5625 11.1766 0.957588 10.4733 1.66085C9.77009 2.36411 9.375 3.31794 9.375 4.3125V5.875C9.375 5.95788 9.34208 6.03737 9.28347 6.09597C9.22487 6.15458 9.14538 6.1875 9.0625 6.1875H4.375C3.21468 6.1875 2.10188 6.64844 1.28141 7.46891C0.460936 8.28938 0 9.40218 0 10.5625L0 23.0625C0 24.2228 0.460936 25.3356 1.28141 26.1561C2.10188 26.9766 3.21468 27.4375 4.375 27.4375ZM11.875 4.3125C11.875 3.98098 12.0067 3.66304 12.2411 3.42862C12.4755 3.1942 12.7935 3.0625 13.125 3.0625H16.875C17.2065 3.0625 17.5245 3.1942 17.7589 3.42862C17.9933 3.66304 18.125 3.98098 18.125 4.3125V5.875C18.125 5.95788 18.0921 6.03737 18.0335 6.09597C17.9749 6.15458 17.8954 6.1875 17.8125 6.1875H12.1875C12.1046 6.1875 12.0251 6.15458 11.9665 6.09597C11.9079 6.03737 11.875 5.95788 11.875 5.875V4.3125ZM16.375 18.65L12.625 17.275C12.0854 17.0223 11.6345 16.6128 11.3312 16.0999C11.0279 15.587 10.8864 14.9946 10.925 14.4C10.9148 13.6918 11.163 13.0042 11.6232 12.4659C12.0833 11.9275 12.7239 11.5752 13.425 11.475C13.4946 11.4564 13.5563 11.416 13.6013 11.3598C13.6463 11.3036 13.6721 11.2344 13.675 11.1625V10.5625C13.675 10.231 13.8067 9.91304 14.0411 9.67862C14.2755 9.4442 14.5935 9.3125 14.925 9.3125C15.2565 9.3125 15.5745 9.4442 15.8089 9.67862C16.0433 9.91304 16.175 10.231 16.175 10.5625V11.0875C16.175 11.1704 16.2079 11.2499 16.2665 11.3085C16.3251 11.3671 16.4046 11.4 16.4875 11.4H17.7375C18.069 11.4 18.387 11.5317 18.6214 11.7661C18.8558 12.0005 18.9875 12.3185 18.9875 12.65C18.9875 12.9815 18.8558 13.2995 18.6214 13.5339C18.387 13.7683 18.069 13.9 17.7375 13.9H14.3C13.475 13.9 13.475 14.2625 13.475 14.4C13.4604 14.6029 13.5131 14.805 13.625 14.975L17.375 16.35C17.9146 16.6027 18.3655 17.0122 18.6688 17.5251C18.9721 18.038 19.1136 18.6304 19.075 19.225C19.0852 19.9332 18.837 20.6208 18.3768 21.1591C17.9167 21.6975 17.2761 22.0498 16.575 22.15C16.5054 22.1686 16.4437 22.209 16.3987 22.2652C16.3537 22.3214 16.3279 22.3906 16.325 22.4625V23.0625C16.325 23.394 16.1933 23.712 15.9589 23.9464C15.7245 24.1808 15.4065 24.3125 15.075 24.3125C14.7435 24.3125 14.4255 24.1808 14.1911 23.9464C13.9567 23.712 13.825 23.394 13.825 23.0625V22.5375C13.825 22.4546 13.7921 22.3751 13.7335 22.3165C13.6749 22.2579 13.5954 22.225 13.5125 22.225H12.2625C11.931 22.225 11.613 22.0933 11.3786 21.8589C11.1442 21.6245 11.0125 21.3065 11.0125 20.975C11.0125 20.6435 11.1442 20.3255 11.3786 20.0911C11.613 19.8567 11.931 19.725 12.2625 19.725H15.7375C16.5625 19.725 16.5625 19.3625 16.5625 19.225C16.5662 19.0177 16.5002 18.8152 16.375 18.65Z" fill="#1F4854"/>
</svg>
