<svg width="24" height="26" viewBox="0 0 24 26" fill="none" xmlns="http://www.w3.org/2000/svg">
<path d="M4.42105 11.75L11.3684 0.5L18.3158 11.75H4.42105ZM18.3158 25.5C16.7368 25.5 15.3949 24.9533 14.2901 23.86C13.1853 22.7667 12.6324 21.4383 12.6316 19.875C12.6307 18.3117 13.1836 16.9837 14.2901 15.8912C15.3966 14.7987 16.7385 14.2517 18.3158 14.25C19.893 14.2483 21.2354 14.7954 22.3427 15.8912C23.4501 16.9871 24.0025 18.315 24 19.875C23.9975 21.435 23.445 22.7633 22.3427 23.86C21.2404 24.9567 19.8981 25.5033 18.3158 25.5ZM0 24.875V14.875H10.1053V24.875H0Z" fill="#1F4854"/>
</svg>
