<svg width="31" height="30" viewBox="0 0 31 30" fill="none" xmlns="http://www.w3.org/2000/svg">
<path d="M9.73165 14.9925C10.0633 14.9925 10.3815 14.8607 10.616 14.6262C10.8505 14.3917 10.9823 14.0736 10.9823 13.7419C10.9823 13.4102 10.8505 13.0921 10.616 12.8575C10.3815 12.623 10.0633 12.4912 9.73165 12.4912H4.72905C4.39735 12.4912 4.07924 12.623 3.8447 12.8575C3.61016 13.0921 3.47839 13.4102 3.47839 13.7419C3.47839 14.0736 3.61016 14.3917 3.8447 14.6262C4.07924 14.8607 4.39735 14.9925 4.72905 14.9925H5.04171C5.12463 14.9925 5.20416 15.0255 5.26279 15.0841C5.32143 15.1427 5.35437 15.2223 5.35437 15.3052V20.3078C5.35437 20.3907 5.32143 20.4702 5.26279 20.5289C5.20416 20.5875 5.12463 20.6204 5.04171 20.6204H4.72905C4.39735 20.6204 4.07924 20.7522 3.8447 20.9868C3.61016 21.2213 3.47839 21.5394 3.47839 21.8711C3.47839 22.2028 3.61016 22.5209 3.8447 22.7554C4.07924 22.99 4.39735 23.1218 4.72905 23.1218H9.73165C10.0633 23.1218 10.3815 22.99 10.616 22.7554C10.8505 22.5209 10.9823 22.2028 10.9823 21.8711C10.9823 21.5394 10.8505 21.2213 10.616 20.9868C10.3815 20.7522 10.0633 20.6204 9.73165 20.6204H9.41899C9.33607 20.6204 9.25654 20.5875 9.1979 20.5289C9.13927 20.4702 9.10633 20.3907 9.10633 20.3078V15.3052C9.10633 15.2223 9.13927 15.1427 9.1979 15.0841C9.25654 15.0255 9.33607 14.9925 9.41899 14.9925H9.73165Z" fill="#1F4854"/>
<path d="M18.4863 14.9925C18.818 14.9925 19.1361 14.8607 19.3706 14.6262C19.6052 14.3917 19.7369 14.0736 19.7369 13.7419C19.7369 13.4102 19.6052 13.0921 19.3706 12.8575C19.1361 12.623 18.818 12.4912 18.4863 12.4912H13.4837C13.152 12.4912 12.8339 12.623 12.5993 12.8575C12.3648 13.0921 12.233 13.4102 12.233 13.7419C12.233 14.0736 12.3648 14.3917 12.5993 14.6262C12.8339 14.8607 13.152 14.9925 13.4837 14.9925H13.7963C13.8793 14.9925 13.9588 15.0255 14.0174 15.0841C14.0761 15.1427 14.109 15.2223 14.109 15.3052V20.3078C14.109 20.3907 14.0761 20.4702 14.0174 20.5289C13.9588 20.5875 13.8793 20.6204 13.7963 20.6204H13.4837C13.152 20.6204 12.8339 20.7522 12.5993 20.9868C12.3648 21.2213 12.233 21.5394 12.233 21.8711C12.233 22.2028 12.3648 22.5209 12.5993 22.7554C12.8339 22.99 13.152 23.1218 13.4837 23.1218H18.4863C18.818 23.1218 19.1361 22.99 19.3706 22.7554C19.6052 22.5209 19.7369 22.2028 19.7369 21.8711C19.7369 21.5394 19.6052 21.2213 19.3706 20.9868C19.1361 20.7522 18.818 20.6204 18.4863 20.6204H18.1736C18.0907 20.6204 18.0112 20.5875 17.9525 20.5289C17.8939 20.4702 17.861 20.3907 17.861 20.3078V15.3052C17.861 15.2223 17.8939 15.1427 17.9525 15.0841C18.0112 15.0255 18.0907 14.9925 18.1736 14.9925H18.4863Z" fill="#1F4854"/>
<path d="M27.8662 14.9925C28.1979 14.9925 28.516 14.8607 28.7505 14.6262C28.9851 14.3917 29.1168 14.0736 29.1168 13.7419C29.1168 13.4102 28.9851 13.0921 28.7505 12.8575C28.516 12.623 28.1979 12.4912 27.8662 12.4912H22.8636C22.5319 12.4912 22.2138 12.623 21.9792 12.8575C21.7447 13.0921 21.6129 13.4102 21.6129 13.7419C21.6129 14.0736 21.7447 14.3917 21.9792 14.6262C22.2138 14.8607 22.5319 14.9925 22.8636 14.9925H23.1762C23.2592 14.9925 23.3387 15.0255 23.3973 15.0841C23.456 15.1427 23.4889 15.2223 23.4889 15.3052V20.3078C23.4889 20.3907 23.456 20.4702 23.3973 20.5289C23.3387 20.5875 23.2592 20.6204 23.1762 20.6204H22.8636C22.5319 20.6204 22.2138 20.7522 21.9792 20.9868C21.7447 21.2213 21.6129 21.5394 21.6129 21.8711C21.6129 22.2028 21.7447 22.5209 21.9792 22.7554C22.2138 22.99 22.5319 23.1218 22.8636 23.1218H27.8662C28.1979 23.1218 28.516 22.99 28.7505 22.7554C28.9851 22.5209 29.1168 22.2028 29.1168 21.8711C29.1168 21.5394 28.9851 21.2213 28.7505 20.9868C28.516 20.7522 28.1979 20.6204 27.8662 20.6204H27.5535C27.4706 20.6204 27.3911 20.5875 27.3324 20.5289C27.2738 20.4702 27.2408 20.3907 27.2408 20.3078V15.3052C27.2408 15.2223 27.2738 15.1427 27.3324 15.0841C27.3911 15.0255 27.4706 14.9925 27.5535 14.9925H27.8662Z" fill="#1F4854"/>
<path d="M4.04139 10.6149H28.0539C28.2973 10.6203 28.5371 10.5546 28.7437 10.4257C28.9503 10.2969 29.1148 10.1105 29.217 9.88948C29.3167 9.65594 29.3325 9.39511 29.2619 9.15122C29.1912 8.90733 29.0384 8.69538 28.8293 8.55128L17.4109 0.234448C17.1881 0.0817311 16.9243 0 16.6542 0C16.3841 0 16.1203 0.0817311 15.8976 0.234448L3.31602 8.52627C3.09631 8.66128 2.9317 8.86993 2.85153 9.11502C2.77136 9.36012 2.78084 9.62572 2.87829 9.86447C2.97676 10.0902 3.13966 10.2817 3.34657 10.4152C3.55347 10.5487 3.79518 10.6182 4.04139 10.6149Z" fill="#1F4854"/>
<path d="M30.8928 29.0242L28.3915 25.2722C28.3327 25.1872 28.2543 25.1178 28.1628 25.0699C28.0713 25.022 27.9695 24.997 27.8662 24.9971H4.10382C4.00053 24.997 3.89877 25.022 3.80727 25.0699C3.71577 25.1178 3.63728 25.1872 3.57855 25.2722L1.07725 29.0242C1.01332 29.1187 0.976495 29.229 0.970761 29.343C0.965026 29.457 0.990602 29.5704 1.04472 29.6709C1.09883 29.7714 1.17942 29.8551 1.27774 29.9131C1.37607 29.9711 1.48839 30.001 1.60252 29.9997H30.3675C30.4816 30.001 30.594 29.9711 30.6923 29.9131C30.7906 29.8551 30.8712 29.7714 30.9253 29.6709C30.9794 29.5704 31.005 29.457 30.9993 29.343C30.9935 29.229 30.9567 29.1187 30.8928 29.0242Z" fill="#1F4854"/>
</svg>
