<svg width="33" height="33" viewBox="0 0 33 33" fill="none" xmlns="http://www.w3.org/2000/svg">
<path d="M31.5625 2.95707H27.9898C27.5258 2.95417 27.0746 3.10896 26.7101 3.39606C26.3456 3.68316 26.0894 4.08556 25.9835 4.5373L24.4445 10.9269C24.4261 11.0045 24.3823 11.0737 24.3201 11.1235C24.2578 11.1733 24.1807 11.2008 24.101 11.2018H1.45558C1.23877 11.2012 1.02489 11.252 0.831446 11.3499C0.637999 11.4478 0.470469 11.5901 0.342547 11.7652C0.214856 11.9413 0.130829 12.1453 0.0973842 12.3603C0.0639389 12.5753 0.082031 12.7952 0.150171 13.0019L3.81906 23.9948C3.90889 24.2703 4.08351 24.5103 4.31796 24.6806C4.55242 24.8509 4.8347 24.9427 5.12447 24.9429H20.7069C20.7591 24.9413 20.811 24.9516 20.8586 24.973C20.9063 24.9944 20.9484 25.0264 20.9818 25.0666C21.0018 25.112 21.0122 25.1612 21.0122 25.2109C21.0122 25.2606 21.0018 25.3097 20.9818 25.3552L20.8306 26.0422C20.8122 26.1198 20.7684 26.189 20.7062 26.2388C20.6439 26.2886 20.5668 26.3161 20.4871 26.317H6.71844C6.11006 26.3306 5.51919 26.5233 5.01988 26.8712C4.52056 27.219 4.13499 27.7065 3.91148 28.2725C3.68797 28.8385 3.63647 29.4578 3.76341 30.053C3.89035 30.6481 4.1901 31.1926 4.6251 31.6181C5.0601 32.0437 5.61101 32.3314 6.2088 32.4452C6.80659 32.5591 7.42469 32.4939 7.98564 32.2581C8.54659 32.0222 9.02546 31.626 9.36225 31.1191C9.69903 30.6123 9.87876 30.0173 9.87891 29.4088C9.87953 29.3623 9.88959 29.3164 9.90849 29.2738C9.92738 29.2313 9.95472 29.1931 9.98884 29.1615C10.0185 29.1295 10.0548 29.1044 10.0951 29.0878C10.1354 29.0712 10.1789 29.0635 10.2224 29.0653H18.4671C18.5582 29.0653 18.6456 29.1015 18.71 29.1659C18.7745 29.2303 18.8107 29.3177 18.8107 29.4088C18.8125 29.9375 18.9499 30.4569 19.2098 30.9174C19.4696 31.3779 19.8432 31.764 20.2948 32.0389C20.7464 32.3138 21.261 32.4683 21.7894 32.4876C22.3178 32.507 22.8422 32.3905 23.3128 32.1493C23.7833 31.9081 24.1841 31.5503 24.4768 31.11C24.7696 30.6698 24.9446 30.1618 24.9851 29.6346C25.0256 29.1075 24.9302 28.5787 24.708 28.0989C24.4859 27.6192 24.1444 27.2043 23.7163 26.8942C23.661 26.8582 23.619 26.8052 23.5967 26.7432C23.5744 26.6812 23.5729 26.6135 23.5926 26.5506L28.4295 5.9389C28.4571 5.86174 28.5104 5.79642 28.5804 5.75389C28.6505 5.71136 28.733 5.69421 28.8142 5.7053H31.5625C31.9269 5.7053 32.2764 5.56053 32.5341 5.30283C32.7918 5.04514 32.9366 4.69562 32.9366 4.33119C32.9366 3.96675 32.7918 3.61724 32.5341 3.35954C32.2764 3.10184 31.9269 2.95707 31.5625 2.95707Z" fill="#1F4854"/>
<path d="M13.4242 9.82813H20.6933C20.9531 9.83124 21.2085 9.7606 21.4299 9.62439C21.6512 9.48819 21.8294 9.29201 21.9437 9.05863C22.0594 8.83046 22.1092 8.57451 22.0873 8.3196C22.0655 8.06469 21.9729 7.82094 21.82 7.61581L19.0993 4.15303L18.9756 4.00188C18.5582 3.58484 17.9923 3.35059 17.4022 3.35059C16.8122 3.35059 16.2463 3.58484 15.8289 4.00188L12.4348 7.49214C12.2449 7.68587 12.1166 7.93149 12.0661 8.19804C12.0155 8.46458 12.045 8.74012 12.1508 8.98994C12.2566 9.23975 12.434 9.45265 12.6606 9.60182C12.8872 9.75098 13.1529 9.82973 13.4242 9.82813Z" fill="#1F4854"/>
<path d="M1.88148 9.00369C1.98875 9.24949 2.16561 9.45852 2.39024 9.60502C2.61488 9.75153 2.87748 9.82909 3.14566 9.82816H9.0681C9.29569 9.82549 9.51904 9.76634 9.71811 9.65601C9.91718 9.54568 10.0857 9.38764 10.2086 9.19606C10.3464 8.997 10.4291 8.76509 10.4484 8.52379C10.4677 8.28249 10.4229 8.04038 10.3185 7.82195L7.57032 1.74836C7.43842 1.46503 7.24764 1.21309 7.01069 1.00931C6.77374 0.805535 6.49608 0.654617 6.1962 0.566618C5.625 0.428476 5.02288 0.5068 4.50604 0.786477L1.33183 2.24304C0.792754 2.49225 0.371289 2.94076 0.156034 3.49427C-0.0592211 4.04778 -0.0514999 4.66319 0.177574 5.21113L1.88148 9.00369Z" fill="#1F4854"/>
</svg>
