<svg width="27" height="29" viewBox="0 0 27 29" fill="none" xmlns="http://www.w3.org/2000/svg">
<path d="M26.4526 16.4137L12.2687 1.20778C11.5189 0.484614 10.5607 0.0583981 9.55358 0L2.2532 0C1.65658 0.00269671 1.08531 0.258962 0.664695 0.712588C0.241557 1.16351 0.00251547 1.77594 0 2.41555L0 10.254C0.0384148 11.3376 0.438164 12.3704 1.1266 13.1648L15.3105 28.3586C15.4801 28.5522 15.6841 28.7074 15.9104 28.8153C16.1368 28.9231 16.381 28.9814 16.6286 28.9866C16.7633 29.0045 16.8995 29.0045 17.0342 28.9866C17.34 28.8923 17.6179 28.7148 17.841 28.4715C18.064 28.2281 18.2246 27.9271 18.3073 27.5977L19.9409 21.74C19.9703 21.6575 20.0156 21.5826 20.0738 21.5202C20.132 21.4577 20.2019 21.4092 20.2788 21.3776L25.6527 19.6264C25.9644 19.5498 26.2502 19.3824 26.4787 19.1426C26.7071 18.9029 26.8694 18.6001 26.9475 18.2677C27.0255 17.9354 27.0164 17.5863 26.9212 17.2592C26.8259 16.932 26.6482 16.6394 26.4076 16.4137H26.4526ZM6.75961 9.04625C6.42443 9.04863 6.09616 8.94411 5.81654 8.74596C5.53691 8.54782 5.31857 8.265 5.18927 7.93347C5.05997 7.60195 5.02556 7.23669 5.09041 6.88414C5.15525 6.53159 5.31643 6.20767 5.55344 5.95358C5.79045 5.69949 6.0926 5.5267 6.42145 5.45718C6.75031 5.38767 7.09102 5.42456 7.40026 5.56317C7.70951 5.70179 7.97332 5.93586 8.15815 6.23563C8.34298 6.5354 8.44048 6.88733 8.43825 7.24666C8.4353 7.72296 8.25749 8.17886 7.94333 8.51566C7.62916 8.85247 7.2039 9.04308 6.75961 9.04625Z" fill="#1F4854"/>
</svg>
